<?xml version="1.0" encoding="utf-8"?>
<!-- Generator: Adobe Illustrator 24.0.2, SVG Export Plug-In . SVG Version: 6.00 Build 0)  -->
<svg version="1.1" id="Layer_1" xmlns="http://www.w3.org/2000/svg" xmlns:xlink="http://www.w3.org/1999/xlink" x="0px" y="0px"
	 viewBox="0 0 300 150" style="enable-background:new 0 0 300 150;" xml:space="preserve">
<style type="text/css">
	.st0{fill:url(#SVGID_1_);}
	.st1{fill:url(#SVGID_2_);}
	.st2{fill:url(#SVGID_3_);}
	.st3{fill:#E1E1E1;}
	.st4{fill:#333333;}
	.st5{fill:#FFFFFF;}
	.st6{fill:#5E5E5E;}
</style>
<linearGradient id="SVGID_1_" gradientUnits="userSpaceOnUse" x1="18.0623" y1="100.1855" x2="84.0481" y2="135.1728" gradientTransform="matrix(1 0 0 -1 0 155.7778)">
	<stop  offset="0" style="stop-color:#A0A0A0"/>
	<stop  offset="1" style="stop-color:#FFFFFF"/>
</linearGradient>
<path class="st0" d="M81.2,45.5c0,0.9-0.2,1.8-0.5,2.6c-9.2-0.3-17.3-5-22.2-12.2c-1.1-1.6-2-3.3-2.7-5.1
	c-3.9,5.9-10,10.3-17.2,11.8c2.4,0.5,4.7,1.4,6.8,2.5l0,0c1.1,0.6,2.2,1.2,3.2,1.9c0,0,0,0,0.1,0.1c1.1,0.8,2.1,1.6,3.1,2.5
	c0,0,0,0,0,0c1.7,1.8,3,3.9,3.8,6.2c-3.7,1.8-7.9,2.9-12.3,2.9c-4.9,0-9.5-1.3-13.4-3.5l0,0c-1.7-0.9-3.2-2-4.6-3.2
	c-0.4-0.3-0.8-0.7-1.1-1c0,0-0.1,0.1-0.1,0.1c-1.2,0.7-2.5,1.4-3.9,1.9c-3.1,1.2-6.5,1.9-10.1,1.9c-0.2,0-0.4,0-0.7,0
	c-1,0-1.9-0.1-2.9-0.2c1.4-0.4,2.8-1,4.2-1.6c3.6-1.8,6.7-4.3,9.2-7.3c0.2-0.3,0.5-0.6,0.7-0.8l0,0c0.8-1.1,1.6-2.2,2.2-3.4
	c0.1-0.1,0.1-0.3,0.2-0.4l0,0c0.2-0.4,0.4-0.8,0.6-1.3c0,0,0,0,0,0c0.2-0.3,0.4-0.6,0.6-0.9c0.9-1.8,1.9-3.6,3-5.3
	c2.7-4.2,10.2-11,10.2-11c4.8-3.7,10.4-6.4,16.5-7.9c0.2,0,0.4-0.1,0.5-0.1c0.1-0.2,0.2-0.4,0.2-0.6c0,0,0,0,0,0
	c0.2-0.4,0.3-0.7,0.5-1.1c0.7-1.5,1.7-2.8,2.8-4.1c-0.2,1-0.3,2-0.3,3c0,0.2,0,0.5,0,0.7c0,0.5,0.1,0.9,0.1,1.4
	c0.2,1.2,0.4,2.4,0.8,3.5c0.1,0.2,0.1,0.4,0.2,0.6c0,0,0,0.1,0,0.1c0.1,0.2,0.1,0.3,0.2,0.5c0,0,0,0,0,0.1c0,0.1,0.1,0.2,0.1,0.3
	c0,0,0,0,0,0c0.1,0.2,0.2,0.4,0.3,0.5c0.1,0.2,0.2,0.4,0.3,0.6c0.1,0.1,0.1,0.2,0.2,0.4l0,0c0,0,0,0.1,0.1,0.1
	c0.1,0.1,0.2,0.3,0.2,0.4c0.1,0.2,0.2,0.3,0.3,0.5c0,0.1,0.1,0.2,0.2,0.2c0,0.1,0.1,0.2,0.2,0.2c0.1,0.1,0.1,0.2,0.2,0.3
	c0.1,0.2,0.3,0.3,0.4,0.5c0.6,0.7,1.2,1.4,1.9,2c0.6-0.7,1.2-1.4,1.7-2.1c1.6,0.9,3.3,1.7,5.1,2.2c1.2,0.4,2.3,0.7,3.5,0.9
	c-1.1,0.6-2.1,1.3-3,2.3c-0.2,0.2-0.3,0.3-0.4,0.5c-0.4,0.5-0.8,1.1-1.1,1.6c-0.8,1.5-1.3,3.2-1.3,5c0,0.8,0.1,1.7,0.3,2.5
	c0.2,1,0.6,2,1.1,2.8c0.2,0.3,0.3,0.5,0.5,0.8c1.9,2.7,5.1,4.4,8.6,4.4c0.9,0,1.8-0.1,2.7-0.3C81.2,45.3,81.2,45.4,81.2,45.5z"/>
<linearGradient id="SVGID_2_" gradientUnits="userSpaceOnUse" x1="57.58" y1="141.4839" x2="68.08" y2="141.4839" gradientTransform="matrix(1 0 0 -1 0 155.7778)">
	<stop  offset="0" style="stop-color:#FFFFFF"/>
	<stop  offset="1" style="stop-color:#A0A0A0"/>
</linearGradient>
<path class="st1" d="M68.1,12.7c0,0.3,0,0.5,0,0.8c-0.1,1.4-0.3,2.7-0.7,4c-0.2,0.5-0.3,1-0.5,1.5c-0.5,1.2-1.1,2.3-1.8,3.4
	c-0.5,0.8-1.1,1.5-1.7,2.1c-0.7-0.6-1.3-1.3-1.9-2c-0.1-0.2-0.3-0.3-0.4-0.5c-0.1-0.1-0.1-0.2-0.2-0.3c0-0.1-0.1-0.1-0.2-0.2
	c0-0.1-0.1-0.2-0.2-0.2c-0.1-0.2-0.2-0.3-0.3-0.5c-0.1-0.1-0.2-0.3-0.2-0.4c0,0,0-0.1-0.1-0.1l0,0c-0.1-0.1-0.1-0.2-0.2-0.4
	c-0.1-0.2-0.2-0.4-0.3-0.6c-0.1-0.2-0.2-0.4-0.3-0.5c0,0,0,0,0,0c0-0.1-0.1-0.2-0.1-0.3c0,0,0,0,0-0.1c-0.1-0.2-0.1-0.3-0.2-0.5
	c0,0,0-0.1,0-0.1c-0.1-0.2-0.2-0.4-0.2-0.6c-0.4-1.1-0.7-2.3-0.8-3.5c0-0.5-0.1-0.9-0.1-1.4c0-0.2,0-0.5,0-0.7c0-1,0.1-2,0.3-3
	c0.3-0.3,0.5-0.5,0.8-0.8c0.2-0.2,0.3-0.3,0.5-0.5C61,5.9,63.2,4.7,65.7,4c1.2,1.9,1.9,4.1,2.2,6.4l0,0C68,11.2,68.1,12,68.1,12.7z"
	/>
<linearGradient id="SVGID_3_" gradientUnits="userSpaceOnUse" x1="65.08" y1="141.1139" x2="96.6" y2="141.1139" gradientTransform="matrix(1 0 0 -1 0 155.7778)">
	<stop  offset="0" style="stop-color:#FFF9F4"/>
	<stop  offset="1" style="stop-color:#A0A0A0"/>
</linearGradient>
<path class="st2" d="M96.6,18.5c0,0.2,0,0.5,0,0.7c-1.5,1.3-3.1,2.4-4.9,3.4c-1.4,0.8-2.8,1.4-4.3,1.9l0,0c-0.2,0.1-1.5,0.5-2,0.6
	c-0.7,0.2-1.4,0.3-2.1,0.5l0,0c-1.6,0.3-3.1,0.4-4.8,0.4c-1.6,0-3.2-0.1-4.7-0.4l0,0c0,0,0,0-0.1,0l0,0c-1.2-0.2-2.4-0.5-3.5-0.9
	c-1.8-0.6-3.5-1.3-5.1-2.2c0.7-1,1.3-2.2,1.8-3.4c0.2-0.5,0.4-1,0.5-1.5c0.4-1.3,0.6-2.6,0.7-4c0-0.3,0-0.5,0-0.8
	c0-0.8-0.1-1.5-0.2-2.3l0,0C67.6,8.1,66.9,6,65.7,4c1.5-0.4,3-0.6,4.6-0.6c4.4,0,8.3,1.6,11.4,4.3c0.3,2.4,1.8,4.4,4,5.3
	c0.2,0.1,0.4,0.2,0.6,0.2c0.6,0.2,1.2,0.3,1.9,0.3c1.3,0,2.5-0.4,3.6-1c0.1,0,0.2-0.1,0.2-0.2C94.6,13.1,96.6,15.6,96.6,18.5z"/>
<path class="st3" d="M80.7,48.1c-0.7,1.5-1.8,2.7-3.3,3.4c-1.2,0.3-2.4,0.5-3.6,0.5c-0.2,0-0.3,0-0.5,0c-3.4,0-6.5-1-9.2-2.7
	c-3.7-2.3-6.4-6.1-7.5-10.5c-2.7,3.4-6.7,5.7-11.2,6.2l0,0c-2.1-1.1-4.4-1.9-6.8-2.5c7.2-1.5,13.3-5.9,17.2-11.8
	c0.7,1.8,1.6,3.5,2.7,5.1C63.3,43.1,71.4,47.8,80.7,48.1z"/>
<path class="st4" d="M90.9,13.5l1.1-0.9c0.3-0.3,0.8-0.1,0.9,0.3l0.3,1.5l-2.1-0.3C90.8,14,90.7,13.7,90.9,13.5z"/>
<circle class="st4" cx="75.4" cy="12" r="1.9"/>
<circle class="st5" cx="75.8" cy="12.5" r="0.7"/>
<g>
	<path d="M62.2,54.7h30.5c19.2,0,35,6.8,35,28.3c0,20.7-16,29.8-34.4,29.8H83.2v28.9H62.2V54.7z M92.3,96.3
		c10.2,0,15.1-4.8,15.1-13.3c0-8.8-5.6-11.8-15.7-11.8h-8.5v25.2H92.3z"/>
	<path d="M141,75.1h17l1.4,8.3h0.5c5.5-5.4,12.3-9.9,21.3-9.9c14.5,0,20.7,10.4,20.7,27v41.2H181v-38.6c0-9.1-2.5-11.8-7.7-11.8
		c-4.7,0-7.5,2.1-11.6,6v44.5H141L141,75.1L141,75.1z"/>
	<path class="st6" d="M219.1,100.8V54.7h20.8V103c0,16.5,4.9,22.3,14.5,22.3c9.5,0,14.7-5.9,14.7-22.3V54.7h20.1v46.1
		c0,29.4-11.7,42.6-34.9,42.6C231.2,143.4,219.1,130.1,219.1,100.8z"/>
</g>
<g>
	<path class="st6" d="M87.4,137.4v-7H91v6.6c0,1.6,0.4,2,1.3,2c0.8,0,1.3-0.3,1.9-1.2v-7.5h3.6v11.4h-2.9l-0.3-1.6h-0.1
		c-0.9,1.1-2,1.8-3.6,1.8C88.5,142,87.4,140.2,87.4,137.4z"/>
	<path class="st6" d="M100.6,130.3h2.9l0.2,1.1h0.1c0.9-0.8,2-1.4,3.2-1.4c2.7,0,4.4,2.3,4.4,5.8c0,3.9-2.3,6.2-4.8,6.2
		c-1,0-1.9-0.4-2.6-1.2l0.1,1.8v3.3h-3.5V130.3z M107.9,135.9c0-2-0.6-2.9-1.8-2.9c-0.7,0-1.2,0.3-1.8,1v4.5
		c0.6,0.5,1.2,0.7,1.7,0.7C107,139.1,107.9,138.2,107.9,135.9z"/>
	<path class="st6" d="M113.8,130.3h2.9l0.2,1.1h0.1c0.9-0.8,2-1.4,3.2-1.4c2.7,0,4.4,2.3,4.4,5.8c0,3.9-2.3,6.2-4.8,6.2
		c-1,0-1.9-0.4-2.6-1.2l0.1,1.8v3.3h-3.5V130.3z M121,135.9c0-2-0.6-2.9-1.8-2.9c-0.7,0-1.2,0.3-1.8,1v4.5c0.6,0.5,1.2,0.7,1.7,0.7
		C120.1,139.1,121,138.2,121,135.9z"/>
	<path class="st6" d="M126.5,145.9l0.6-2.7c0.2,0,0.5,0.1,0.8,0.1c1.1,0,1.6-0.6,1.9-1.4l0.2-0.6l-4.4-11h3.6l1.5,4.7
		c0.3,1,0.6,2.1,0.9,3.2h0.1c0.2-1.1,0.5-2.1,0.7-3.2l1.3-4.7h3.4l-3.9,11.4c-1.1,2.9-2.3,4.4-5,4.4
		C127.4,146.1,127,146,126.5,145.9z"/>
</g>
</svg>
