<?xml version="1.0" encoding="utf-8"?>
<!-- Generator: Adobe Illustrator 24.2.0, SVG Export Plug-In . SVG Version: 6.00 Build 0)  -->
<svg version="1.1" id="Layer_1" xmlns="http://www.w3.org/2000/svg" xmlns:xlink="http://www.w3.org/1999/xlink" x="0px" y="0px"
	 viewBox="0 0 30 30" style="enable-background:new 0 0 30 30;" xml:space="preserve">
<g id="Search">
	<g>
		<g>
			<g>
				<g>
					<path d="M21.89,20.18c0.16-0.18,0.15-0.46-0.03-0.63l-3.75-3.41c-0.18-0.16-0.46-0.15-0.63,0.03l-1.34,1.48
						c-0.16,0.18-0.15,0.46,0.03,0.63l3.75,3.41c0.18,0.16,0.46,0.15,0.63-0.03L21.89,20.18z"/>
				</g>
			</g>
		</g>
		<g>
			<path d="M12.91,8.19c2.03,0,3.93,1.28,4.63,3.31c0.89,2.57-0.47,5.36-3.03,6.25c-0.53,0.18-1.07,0.27-1.6,0.27
				c-2.03,0-3.93-1.28-4.63-3.31c-0.89-2.57,0.47-5.36,3.03-6.25C11.83,8.28,12.37,8.19,12.91,8.19 M12.91,9.53
				c-0.4,0-0.79,0.07-1.17,0.2l0,0c-0.9,0.31-1.63,0.96-2.05,1.82c-0.42,0.86-0.47,1.83-0.16,2.74c0.5,1.44,1.86,2.41,3.38,2.41
				c0.4,0,0.79-0.07,1.17-0.2c0.9-0.31,1.63-0.96,2.05-1.82c0.42-0.86,0.48-1.83,0.16-2.74C15.79,10.5,14.43,9.53,12.91,9.53
				L12.91,9.53z"/>
		</g>
	</g>
</g>
</svg>
