<?xml version="1.0" encoding="utf-8"?>
<!-- Generator: Adobe Illustrator 24.0.2, SVG Export Plug-In . SVG Version: 6.00 Build 0)  -->
<svg version="1.1" id="Layer_1" xmlns="http://www.w3.org/2000/svg" xmlns:xlink="http://www.w3.org/1999/xlink" x="0px" y="0px"
	 viewBox="0 0 150 150" style="enable-background:new 0 0 150 150;" xml:space="preserve">
<style type="text/css">
	.st0{fill-rule:evenodd;clip-rule:evenodd;fill:#00C300;}
	.st1{fill-rule:evenodd;clip-rule:evenodd;fill:#FFFFFF;}
	.st2{fill-rule:evenodd;clip-rule:evenodd;fill:#F37528;}
</style>
<g>
	<path class="st0" d="M145.77,134.74c0,6.26-5.07,11.33-11.37,11.33H15.39c-6.26,0-11.37-5.07-11.37-11.33V15.79
		c0-6.26,5.1-11.33,11.37-11.33h119.02c6.26,0,11.37,5.07,11.37,11.33V134.74L145.77,134.74L145.77,134.74z"/>
	<path class="st1" d="M135.6,80.36c0,10.63-8.59,19.24-19.16,19.24H33.39c-10.6,0-19.16-8.61-19.16-19.24V34.74
		c0-10.63,8.59-19.24,19.16-19.24h83.02c10.57,0,19.16,8.61,19.16,19.24v45.62H135.6L135.6,80.36z"/>
	<path class="st1" d="M89.91,96.26l-12.33-0.77v-0.31L75,95.35l-2.61-0.17v0.34l-12.33,0.77l11.79,19.23c0,0,0.11,0.2,0.31,0.45
		c0.57,0.97,1.62,1.65,2.83,1.65s2.24-0.65,2.83-1.62c0.26-0.28,0.34-0.48,0.34-0.48L89.91,96.26L89.91,96.26L89.91,96.26z"/>
	<path class="st2" d="M41.19,48.95c0,0-3.32,0-6.33,2.91V40.1h-7.43v30.89h7.52v-2.4c0,0,1.76,3.2,6.24,3.2
		c0,0,10.47-0.4,10.47-11.54C51.66,60.24,51.29,48.95,41.19,48.95L41.19,48.95z M39.54,65.24c-2.64,0-4.77-2.12-4.77-4.75
		c0-2.63,2.16-4.75,4.77-4.75c2.64,0,4.77,2.12,4.77,4.75C44.34,63.1,42.18,65.24,39.54,65.24L39.54,65.24z"/>
	<path class="st2" d="M54.06,39.38v7.17c0,0,3.42-0.14,3.42,6.15v18.3h7.22v-20C64.68,50.99,64.99,39.38,54.06,39.38L54.06,39.38z"
		/>
	<path class="st2" d="M82.15,48.98c0,0-12.24,0-12.24,11.45c0,0-0.4,11.31,12.24,11.31c0,0,12.53-0.03,12.53-11.31
		C94.67,60.43,95.07,48.98,82.15,48.98L82.15,48.98z M82.15,65.22c-2.63,0-4.75-2.13-4.75-4.76c0-2.64,2.12-4.76,4.75-4.76
		c2.63,0,4.75,2.13,4.75,4.76C86.9,63.07,84.78,65.22,82.15,65.22L82.15,65.22z"/>
	<path class="st2" d="M115.18,49.75v2.07c0,0-2.12-2.84-6.22-2.84c0,0-10.49-0.45-10.49,11.42c0,0-0.11,11.05,10.21,11.05
		c0,0,4.21,0.17,6.51-2.84v1.73c0,0,0.51,5.45-4.72,5.45h-1.78v6.59h2.89c0,0,10.83,0.11,10.83-11.65V49.72h-7.21V49.75
		L115.18,49.75z M110.74,65.29c-2.63,0-4.75-2.13-4.75-4.77c0-2.64,2.12-4.77,4.75-4.77s4.75,2.13,4.75,4.77
		C115.52,63.13,113.37,65.29,110.74,65.29L110.74,65.29z"/>
</g>
</svg>
