<?xml version="1.0" encoding="utf-8"?>
<!-- Generator: Adobe Illustrator 24.0.2, SVG Export Plug-In . SVG Version: 6.00 Build 0)  -->
<svg version="1.1" id="Layer_1" xmlns="http://www.w3.org/2000/svg" xmlns:xlink="http://www.w3.org/1999/xlink" x="0px" y="0px"
	 viewBox="0 0 500 500" style="enable-background:new 0 0 500 500;" xml:space="preserve">
<style type="text/css">
	.st0{fill:none;stroke:#231815;stroke-width:17.7939;stroke-miterlimit:10;}
	.st1{fill:none;stroke:#231815;stroke-width:17.1329;stroke-miterlimit:10;}
	.st2{fill:none;stroke:#231815;stroke-width:19.9067;stroke-miterlimit:10;}
</style>
<path class="st0" d="M379.86,387.55H120.44c-1.65,0-3-1.35-3-3V211.7h265.42v172.84C382.86,386.2,381.51,387.55,379.86,387.55z"/>
<path class="st1" d="M403.98,211.7H96.32c-0.55,0-1-0.45-1-1v-42.24c0-0.55,0.45-1,1-1h307.66c0.55,0,1,0.45,1,1v42.24
	C404.98,211.25,404.53,211.7,403.98,211.7z"/>
<path class="st2" d="M219.4,118.77c22.14,10.33,30.74,38.74,30.74,38.74s-27.3,11.68-49.44,1.35
	c-22.14-10.33-35.91-27.67-30.74-38.74S197.26,108.45,219.4,118.77z"/>
<path class="st2" d="M280.89,118.77c-22.14,10.33-30.74,38.74-30.74,38.74s27.3,11.68,49.44,1.35
	c22.14-10.33,35.91-27.67,30.74-38.74C325.17,109.05,303.03,108.45,280.89,118.77z"/>
<line class="st2" x1="250.15" y1="170.05" x2="250.15" y2="388.65"/>
</svg>
