<?xml version="1.0" encoding="utf-8"?>
<!-- Generator: Adobe Illustrator 24.0.2, SVG Export Plug-In . SVG Version: 6.00 Build 0)  -->
<svg version="1.1" id="Layer_1" xmlns="http://www.w3.org/2000/svg" xmlns:xlink="http://www.w3.org/1999/xlink" x="0px" y="0px"
	 viewBox="0 0 500 500" style="enable-background:new 0 0 500 500;" xml:space="preserve">
<style type="text/css">
	.st0{fill:none;stroke:#231815;stroke-width:15.8028;stroke-miterlimit:10;}
	.st1{fill:#231815;stroke:#231815;stroke-width:7.7983;stroke-miterlimit:10;}
</style>
<path class="st0" d="M128.84,267.25L128.84,267.25c0-173.3,242.61-173.3,242.61,0l0,0"/>
<path class="st0" d="M188.66,348.99h-56.82c-1.65,0-3-1.35-3-3V250.9c0-1.65,1.35-3,3-3h56.82c1.65,0,3,1.35,3,3v95.09
	C191.66,347.64,190.31,348.99,188.66,348.99z"/>
<path class="st0" d="M368.45,348.99h-56.82c-1.65,0-3-1.35-3-3V250.9c0-1.65,1.35-3,3-3h56.82c1.65,0,3,1.35,3,3v95.09
	C371.45,347.64,370.1,348.99,368.45,348.99z"/>
<line class="st0" x1="357.35" y1="347.92" x2="299.14" y2="389.54"/>
<path class="st1" d="M305.7,393.76h-43.79c-0.83,0-1.5-0.67-1.5-1.5v-20.39c0-0.83,0.67-1.5,1.5-1.5h43.79c0.83,0,1.5,0.67,1.5,1.5
	v20.39C307.2,393.08,306.52,393.76,305.7,393.76z"/>
</svg>
